<?xml version="1.0" encoding="UTF-8"?>
<svg width="101.34mm" height="101.34mm" version="1.1" viewBox="0 0 101.34 101.34" xmlns="http://www.w3.org/2000/svg">
<g transform="translate(-114.71 1.633)">
<path d="m188.12-1.633c-1.4761-0.00186-2.9506 0.56183-4.0831 1.6964-2.265 2.2692-2.2799 5.9384 0 8.1925l13.304 13.154h-76.85c-3.2031 0-5.7814 2.5839-5.7814 5.7931 0 3.2092 2.5783 5.7923 5.7814 5.7923h75.649l-12.103 11.967c-2.2799 2.2542-2.265 5.9233 0 8.1925 2.265 2.2692 5.8972 2.2542 8.1771 0l22.131-21.882c1.2869-1.2724 1.8425-2.9958 1.6751-4.6636 0.1674-1.6677-0.38816-3.3911-1.6751-4.6636l-22.131-21.882c-1.1399-1.1271-2.6179-1.6946-4.094-1.6964zm-45.481 44.856c-1.4761 0.0018-2.9541 0.56935-4.094 1.6964l-22.131 21.882c-1.2869 1.2724-1.8425 2.9958-1.6751 4.6636-0.16742 1.6677 0.38815 3.3911 1.6751 4.6636l22.131 21.882c2.2799 2.2542 5.9122 2.2692 8.1772 0 2.265-2.2692 2.2799-5.9384 0-8.1925l-12.103-11.967h75.649c3.2031 0 5.7815-2.5832 5.7815-5.7923 0-3.2092-2.5783-5.7931-5.7815-5.7931h-76.85l13.304-13.154c2.2799-2.2542 2.265-5.9233 0-8.1925-1.1325-1.1346-2.607-1.6983-4.0831-1.6964z" stroke-width="6.0854"/>
</g>
</svg>
