<?xml version="1.0" encoding="UTF-8"?>
<svg width="101.34mm" height="101.34mm" version="1.1" viewBox="0 0 101.34 101.34" xmlns="http://www.w3.org/2000/svg">
<g transform="translate(-74.664 -63.702)">
<path d="m107.7 63.702c-3.0166 0-5.4452 2.2522-5.4452 5.05v7.162c0 0.5454 0.0936 1.0697 0.26449 1.561h-22.025c-3.2309 3e-6 -5.8318 2.2522-5.8318 5.05v0.18399c0 2.7978 2.6009 5.05 5.8318 5.05h89.676c3.2309 0 5.8318-2.2522 5.8318-5.05v-0.18399c0-2.7978-2.6009-5.05-5.8318-5.05h-22.276c0.17095-0.49129 0.26386-1.0156 0.26386-1.561v-7.162c0-2.7978-2.4285-5.05-5.4451-5.05zm3.5856 6.7945h28.094v6.9784h-28.094zm-32.061 20.229 8.9537 65.667a13.117 9.6032 0 0 0 13.053 8.6495h47.844a13.06 9.5614 0 0 0 13.001-8.6527l8.5619-65.664zm69.291 6.6848c0.0852 0.0018 0.17056 0.0062 0.25634 0.01376 2.7447 0.22777 4.677 2.9809 4.332 6.1727l-4.9814 46.092c-0.34494 3.1919-2.832 5.5783-5.5768 5.3505s-4.677-2.9808-4.332-6.1727l4.9814-46.092c0.33416-3.0921 2.6788-5.4284 5.3204-5.3643zm-23.487 0.13168c2.7606-0.07139 4.9878 2.4487 4.9939 5.6506l0.0877 46.236c6e-3 3.2018-2.2114 5.837-4.972 5.9084-2.7606 0.0714-4.9878-2.4487-4.9939-5.6506l-0.0877-46.236c-6e-3 -3.2018 2.2114-5.837 4.972-5.9084zm-23.114 0.05185c2.6416-0.06411 4.9863 2.2721 5.3204 5.3643l4.9814 46.092c0.34494 3.1919-1.5867 5.945-4.3314 6.1727-2.7447 0.22777-5.2324-2.1586-5.5774-5.3505l-4.9807-46.092c-0.34494-3.1919 1.5867-5.945 4.3314-6.1727 0.0858-0.0071 0.17113-0.01163 0.25634-0.01376z" stroke-width="2.5"/>
</g>
</svg>
