<?xml version="1.0" encoding="UTF-8"?>
<svg width="1091.4" height="1091.4" version="1.1" viewBox="0 0 288.77 288.76" xmlns="http://www.w3.org/2000/svg">
<g transform="translate(618.28 40.006)" fill-rule="evenodd">
<path d="m-329.5 104.38a144.39 144.39 0 0 1-144.39 144.39 144.39 144.39 0 0 1-144.39-144.39 144.39 144.39 0 0 1 144.39-144.39 144.39 144.39 0 0 1 144.39 144.39z" fill=var(--cranberry) stroke-width=".26459"/>
<path d="m-464.38 39.096v17.833a48.397 48.397 0 0 0-9.5059-0.9462 48.397 48.397 0 0 0-9.5064 0.97462v-17.855a65.977 65.977 0 0 0-29.809 12.519l12.493 12.493a48.397 48.397 0 0 0-13.444 13.444l-12.493-12.493a65.977 65.977 0 0 0-12.519 29.809h17.855a48.397 48.397 0 0 0-0.97462 9.5064 48.397 48.397 0 0 0 0.9741 9.5059h-17.761a65.977 65.977 0 0 0 12.421 29.814l12.498-12.498a48.397 48.397 0 0 0 13.444 13.443l-12.497 12.497a65.977 65.977 0 0 0 29.812 12.515v-17.854a48.397 48.397 0 0 0 9.5064 0.97462 48.397 48.397 0 0 0 9.5059-0.97462v17.854a65.977 65.977 0 0 0 29.809-12.518l-12.494-12.494a48.397 48.397 0 0 0 13.444-13.444l12.494 12.494a65.977 65.977 0 0 0 12.519-29.809h-17.855a48.397 48.397 0 0 0 0.97462-9.5059 48.397 48.397 0 0 0-0.94671-9.5064h17.734a65.977 65.977 0 0 0-12.418-29.816l-12.491 12.491a48.397 48.397 0 0 0-13.444-13.444l12.491-12.491a65.977 65.977 0 0 0-29.816-12.518z" fill="#fff" stroke-width=".26458"/>
</g>
</svg>
