<?xml version="1.0" encoding="UTF-8"?>
<svg width="101.34mm" height="101.34mm" version="1.1" viewBox="0 0 101.34 101.34" xmlns="http://www.w3.org/2000/svg">
<g transform="translate(-114.56 2.0895)">
<path transform="matrix(.26458 0 0 .26458 110 -2.6745)" d="m130.8 2.2109c-17.756 0-32.049 14.293-32.049 32.049v318.92c0 17.756 14.293 32.051 32.049 32.051h24.699c17.756 0 32.051-14.295 32.051-32.051v-318.92c0-17.756-14.295-32.049-32.051-32.049zm131.17 0c-17.756 0-32.049 14.293-32.049 32.049v318.92c0 17.756 14.293 32.051 32.049 32.051h24.701c17.756 0 32.049-14.295 32.049-32.051v-318.92c0-17.756-14.293-32.049-32.049-32.049z" stroke-width="23"/>
</g>
</svg>
