<?xml version="1.0" encoding="UTF-8"?>
<svg width="101.34mm" height="101.34mm" version="1.1" viewBox="0 0 101.34 101.34" xmlns="http://www.w3.org/2000/svg">
<g transform="translate(-110 1.8472)">
<path transform="matrix(.26458 0 0 .26458 110 -1.8472)" d="m222.68 0c-1.5353-0.0010891-3.0759 0.13837-4.6055 0.41992-12.629 2.3247-21.837 13.781-21.838 27.17v141.26h-170.33c-14.732 0-26.592 10.79-26.592 24.193 0 13.404 11.86 24.195 26.592 24.195h170.33v138.19c-8e-5 21.239 22.022 34.514 39.639 23.895l77.912-163.92c12.643-17.253 15.959-22.798 0-47.789l-77.912-163.92c-4.0351-2.4324-8.5894-3.694-13.195-3.6973zm131.18 0c-16.154 0-29.16 14.293-29.16 32.049v318.92c0 17.756 13.006 32.051 29.16 32.051 16.154 0 29.16-14.295 29.16-32.051v-318.92c0-17.756-13.006-32.049-29.16-32.049z" stroke-width="23"/>
</g>
</svg>
