<?xml version="1.0" encoding="UTF-8"?>
<svg width="101.34mm" height="101.34mm" version="1.1" viewBox="0 0 101.34 101.34" xmlns="http://www.w3.org/2000/svg">
<g transform="translate(12.823 11.582)">
<path transform="matrix(.26458 0 0 .26458 -12.823 -11.582)" d="m125.31 60.172c-69.233 0-124.97 58.451-124.97 131.06s55.734 131.06 124.97 131.06h132.29c69.233 0 124.97-58.451 124.97-131.06s-55.736-131.06-124.97-131.06zm15.312 35.062h101.67c53.206 0 96.039 42.835 96.039 96.041s-42.833 96.039-96.039 96.039h-101.67c-53.206 0-96.041-42.833-96.041-96.039s42.835-96.041 96.041-96.041z"/>
<path d="m39.4 39.014a17.735 17.735 0 0 1-17.735 17.735 17.735 17.735 0 0 1-17.735-17.735 17.735 17.735 0 0 1 17.735-17.735 17.735 17.735 0 0 1 17.735 17.735z" fill-rule="evenodd" stroke-width=".26458"/>
</g>
</svg>
