<?xml version="1.0" encoding="UTF-8"?>
<svg width="101.34mm" height="101.34mm" version="1.1" viewBox="0 0 101.34 101.34" xmlns="http://www.w3.org/2000/svg">
<g transform="translate(12.823 11.582)">
<path d="m21.997 4.268c-19.291 0-34.82 15.529-34.82 34.82 0 19.291 15.529 34.82 34.82 34.82h31.7c19.291 0 34.82-15.529 34.82-34.82 0-19.291-15.529-34.82-34.82-34.82zm30.908 17.196a17.624 17.624 0 0 1 17.624 17.624 17.624 17.624 0 0 1-17.624 17.624 17.624 17.624 0 0 1-17.624-17.624 17.624 17.624 0 0 1 17.624-17.624z" stroke-width="6.0854"/>
</g>
</svg>
