<?xml version="1.0" encoding="UTF-8"?>
<svg width="71.515" height="55.442" version="1.1" viewBox="0 0 71.515 55.442" xmlns="http://www.w3.org/2000/svg">
<g transform="translate(-68.444 -85.606)">
<g transform="translate(1.17 -.0016105)">
<path transform="matrix(.26458 0 0 .26458 67.274 85.608)" d="m26.895 0c-14.9 0-26.895 12.455-26.895 27.926v153.44c0 15.471 11.995 27.926 26.895 27.926h15.102l17.455-49.211a16.587 16.587 0 0 1 15.633-11.043h119.99a16.93 16.93 0 0 1 15.949 11.252l17.441 49.002h14.932c14.9 0 26.896-12.455 26.896-27.926v-153.44c0-15.471-11.997-27.926-26.896-27.926h-216.5zm43.58 73.818a15.707 15.707 0 0 1 15.707 15.707 15.707 15.707 0 0 1-15.707 15.707 15.707 15.707 0 0 1-15.707-15.707 15.707 15.707 0 0 1 15.707-15.707zm129.34 0a15.707 15.707 0 0 1 15.707 15.707 15.707 15.707 0 0 1-15.707 15.707 15.707 15.707 0 0 1-15.707-15.707 15.707 15.707 0 0 1 15.707-15.707zm-89.846 0.60742h50.361a42.285 42.285 0 0 0-2.0234 7.1855 42.285 42.285 0 0 0-0.08789 0.46289 42.285 42.285 0 0 0-0.6875 7.4512 42.285 42.285 0 0 0 0.69141 7.4707 42.285 42.285 0 0 0 0.08008 0.42383 42.285 42.285 0 0 0 2.0293 7.2051h-50.375a42.285 42.285 0 0 0 2.0195-7.1621 42.285 42.285 0 0 0 0.0957-0.50781 42.285 42.285 0 0 0 0.68555-7.4297 42.285 42.285 0 0 0-0.70118-7.666 42.285 42.285 0 0 0-0.00195-0.011719 42.285 42.285 0 0 0-0.00391-0.013672 42.285 42.285 0 0 0-2.0781-7.3945 42.285 42.285 0 0 0-0.00391-0.013672zm-22.314 85.271a16.587 16.587 0 0 0-15.633 11.043l-13.75 38.77 153.75 0.03515-13.736-38.594a16.93 16.93 0 0 0-15.951-11.254h-94.676z" fill-opacity=".98281"/>
</g>
</g>
</svg>
